<svg width="20" height="20" viewBox="0 0 20 20" fill="none" xmlns="http://www.w3.org/2000/svg">
<path d="M9.86942 6.7858L12.4582 9.37455H5.5V10.5842H12.3711L9.86942 13.0823L10.7247 13.9375L14.3005 10.3604V9.50519L10.7259 5.93055L9.87063 6.7858H9.86942Z" fill="#F8F8F8"/>
<path d="M10 19C8.8181 19 7.64778 18.7672 6.55585 18.3149C5.46392 17.8626 4.47177 17.1997 3.63604 16.364C2.80031 15.5282 2.13738 14.5361 1.68508 13.4442C1.23279 12.3522 1 11.1819 1 10C1 8.8181 1.23279 7.64778 1.68508 6.55585C2.13738 5.46392 2.80031 4.47177 3.63604 3.63604C4.47177 2.80031 5.46392 2.13738 6.55585 1.68508C7.64778 1.23279 8.8181 1 10 1C12.3869 1 14.6761 1.94821 16.364 3.63604C18.0518 5.32387 19 7.61305 19 10C19 12.3869 18.0518 14.6761 16.364 16.364C14.6761 18.0518 12.3869 19 10 19ZM10 17.5C11.9891 17.5 13.8968 16.7098 15.3033 15.3033C16.7098 13.8968 17.5 11.9891 17.5 10C17.5 8.01088 16.7098 6.10322 15.3033 4.6967C13.8968 3.29018 11.9891 2.5 10 2.5C8.01088 2.5 6.10322 3.29018 4.6967 4.6967C3.29018 6.10322 2.5 8.01088 2.5 10C2.5 11.9891 3.29018 13.8968 4.6967 15.3033C6.10322 16.7098 8.01088 17.5 10 17.5V17.5Z" fill="#F8F8F8"/>
</svg>
