<svg width="20" height="20" viewBox="0 0 20 20" fill="none" xmlns="http://www.w3.org/2000/svg">
<path d="M16.9533 10.6543L10.4708 3.18362C10.4122 3.11602 10.3398 3.0618 10.2584 3.02465C10.177 2.98749 10.0886 2.96826 9.99915 2.96826C9.90969 2.96826 9.82127 2.98749 9.73989 3.02465C9.65851 3.0618 9.58607 3.11602 9.52747 3.18362L3.04699 10.6543C3.02741 10.6768 3.01471 10.7045 3.01041 10.734C3.00611 10.7636 3.01039 10.7937 3.02274 10.8209C3.03509 10.848 3.05499 10.8711 3.08006 10.8873C3.10514 10.9034 3.13434 10.9121 3.16418 10.9121H4.74621C4.83606 10.9121 4.922 10.8731 4.98254 10.8047L9.25794 5.87698V16.875C9.25794 16.9609 9.32825 17.0313 9.41419 17.0313H10.5861C10.672 17.0313 10.7423 16.9609 10.7423 16.875V5.87698L15.0177 10.8047C15.0763 10.8731 15.1622 10.9121 15.254 10.9121H16.8361C16.9689 10.9121 17.0411 10.7559 16.9533 10.6543Z" fill="#F8F8F8"/>
</svg>
