<svg width="20" height="20" viewBox="0 0 20 20" fill="none" xmlns="http://www.w3.org/2000/svg">
<path d="M3.04674 9.34569L9.52917 16.8164C9.58777 16.884 9.66021 16.9382 9.74159 16.9754C9.82297 17.0125 9.91139 17.0317 10.0009 17.0317C10.0903 17.0317 10.1787 17.0125 10.2601 16.9754C10.3415 16.9382 10.4139 16.884 10.4725 16.8164L16.953 9.34569C16.9726 9.32317 16.9853 9.2955 16.9896 9.26596C16.9939 9.23643 16.9896 9.20629 16.9773 9.17912C16.9649 9.15196 16.945 9.12891 16.9199 9.11273C16.8949 9.09656 16.8657 9.08793 16.8358 9.08787H15.2538C15.1639 9.08787 15.078 9.12694 15.0175 9.19529L10.7421 14.123L10.7421 3.12499C10.7421 3.03905 10.6718 2.96874 10.5858 2.96874H9.41394C9.328 2.96874 9.25769 3.03905 9.25769 3.12499L9.25769 14.123L4.98229 9.19529C4.9237 9.12694 4.83776 9.08787 4.74596 9.08787H3.16393C3.03112 9.08787 2.95885 9.24412 3.04674 9.34569Z" fill="#F8F8F8"/>
</svg>
