<svg width="24" height="24" viewBox="0 0 24 24" fill="none" xmlns="http://www.w3.org/2000/svg">
<path d="M22.4999 8.24999C22.5471 9.9275 21.9526 11.5598 20.8377 12.8141C19.7228 14.0684 18.1714 14.8502 16.4999 15C16.4876 14.4864 16.3861 13.9788 16.1999 13.5C17.5046 13.3658 18.7145 12.7568 19.5995 11.7889C20.4845 10.8209 20.9829 9.56144 20.9999 8.24999C20.995 6.89714 20.469 5.5982 19.5313 4.62303C18.5936 3.64786 17.3163 3.07143 15.9647 3.0135C14.613 2.95558 13.2911 3.42061 12.2734 4.31197C11.2557 5.20334 10.6205 6.45252 10.4998 7.79999C10.0169 7.62836 9.51166 7.52732 8.99983 7.49999C9.22253 5.85838 10.0257 4.35078 11.2639 3.25017C12.5021 2.14955 14.0935 1.52869 15.7499 1.5C16.6374 1.49623 17.5168 1.66825 18.3375 2.00613C19.1581 2.34401 19.9037 2.84107 20.5313 3.46862C21.1589 4.09616 21.6559 4.84177 21.9938 5.66242C22.3317 6.48307 22.5037 7.36251 22.4999 8.24999V8.24999ZM8.24983 8.99998C6.4594 8.99998 4.74231 9.71122 3.47629 10.9772C2.21027 12.2432 1.49902 13.9603 1.49902 15.7507C1.49902 17.5411 2.21027 19.2582 3.47629 20.5242C4.74231 21.7902 6.4594 22.5015 8.24983 22.5015C10.0401 22.5015 11.757 21.7903 13.0228 20.5244C14.2887 19.2586 14.9999 17.5417 14.9999 15.7515C14.9999 13.9613 14.2887 12.2444 13.0228 10.9785C11.757 9.71264 10.0401 9.00148 8.24983 9.00148V8.99998Z" fill="#F8F8F8"/>
</svg>
