<svg width="20" height="20" viewBox="0 0 20 20" fill="none" xmlns="http://www.w3.org/2000/svg">
<path d="M18.9907 18.3056L17.7598 11.3249H18.1755C18.51 11.3249 18.6288 11.1488 18.6288 10.8198V8.30065V6.28532C18.6288 5.95639 18.51 5.75127 18.1755 5.75127L12.0381 5.78149V1.75083C12.0381 1.2716 11.8345 1 11.5 1H8.5C8.16555 1 8 1.42189 8 1.75083V4V5.78149L1.82452 5.75127C1.49006 5.75127 1.22065 6.01624 1.22065 6.34518V10.731C1.22065 11.0599 1.49006 11.3249 1.82452 11.3249H2.24026L1.00929 18.3056C1.00232 18.3398 1 18.3741 1 18.4061C1 18.735 1.26942 19 1.60387 19H18.3961C18.431 19 18.4658 18.9977 18.4983 18.9909C18.8281 18.936 19.0488 18.6277 18.9907 18.3056ZM2.23569 6.78916H9V1.79462H11.0147V6.83295L17.6042 6.78916V9.81215H9.91996H2.23569V6.78916ZM13.5059 17.8735V13.8428C13.5059 13.7423 13.4721 13.6548 13.3699 13.6548H12.6175C12.5153 13.6548 12.4814 13.7423 12.4814 13.8428V17.8735H7.35853V13.8428C7.35853 13.7423 7.32865 13.6548 7.22646 13.6548H6.46968C6.36749 13.6548 6.33396 13.7423 6.33396 13.8428V17.8735H2.23569L3.26026 10.8198H16.5797L17.6042 17.8735H13.5059Z" fill="#F8F8F8"/>
</svg>
