<svg width="20" height="20" viewBox="0 0 20 20" fill="none" xmlns="http://www.w3.org/2000/svg">
<path d="M17.2 2H2.8C2.5879 2.00025 2.38456 2.08461 2.23459 2.23459C2.08461 2.38456 2.00025 2.5879 2 2.8V8.13333H3.06667V3.06667H16.9333V16.9333H3.06667V12H2V17.2C2.00025 17.4121 2.08461 17.6154 2.23459 17.7654C2.38456 17.9154 2.5879 17.9998 2.8 18H17.2C17.4121 17.9998 17.6154 17.9154 17.7654 17.7654C17.9154 17.6154 17.9998 17.4121 18 17.2V2.8C17.9998 2.5879 17.9154 2.38456 17.7654 2.23459C17.6154 2.08461 17.4121 2.00025 17.2 2Z" fill="#F8F8F8"/>
<path d="M8.27351 14.0008L9.00758 14.7348L13.375 10.3674L9.00758 6L8.27351 6.73403L11.3878 9.84838H2V10.8865H11.3878L8.27351 14.0008Z" fill="#F8F8F8"/>
</svg>
