<svg width="40" height="40" viewBox="0 0 40 40" fill="none" xmlns="http://www.w3.org/2000/svg">
<path d="M35.3125 31.875H4.6875C4.51562 31.875 4.375 32.0156 4.375 32.1875V35.3125C4.375 35.4844 4.51562 35.625 4.6875 35.625H35.3125C35.4844 35.625 35.625 35.4844 35.625 35.3125V32.1875C35.625 32.0156 35.4844 31.875 35.3125 31.875ZM9.91016 28.75H13.2305C13.3945 28.75 13.543 28.6445 13.5938 28.4844L15.6914 22H24.2539L26.332 28.4844C26.3828 28.6406 26.5273 28.75 26.6953 28.75H30.1758C30.2188 28.75 30.2617 28.7422 30.3008 28.7305C30.3481 28.7142 30.3917 28.6888 30.4292 28.6556C30.4666 28.6224 30.4971 28.5821 30.5189 28.5371C30.5407 28.4921 30.5533 28.4432 30.5561 28.3932C30.5589 28.3433 30.5518 28.2933 30.5352 28.2461L22.4062 4.63281C22.3799 4.55825 22.3313 4.49356 22.2671 4.44746C22.2028 4.40136 22.126 4.37607 22.0469 4.375H18.0508C17.8867 4.375 17.7422 4.47656 17.6914 4.63281L9.55078 28.2461C9.53516 28.2852 9.53125 28.3281 9.53125 28.3711C9.52734 28.5781 9.69922 28.75 9.91016 28.75V28.75ZM19.9063 8.58984H20.0664L23.3398 18.8945H16.5977L19.9063 8.58984V8.58984Z" fill="#F8F8F8"/>
</svg>
