<svg width="36" height="36" viewBox="0 0 36 36" fill="none" xmlns="http://www.w3.org/2000/svg">
<path d="M26.3693 6C25.6355 6 24.9316 6.29153 24.4127 6.81045C23.8938 7.32937 23.6023 8.03318 23.6023 8.76705V14.8545H12.5341V8.76705C12.5341 8.03318 12.2426 7.32937 11.7236 6.81045C11.2047 6.29153 10.5009 6 9.76705 6C9.03318 6 8.32937 6.29153 7.81045 6.81045C7.29153 7.32937 7 8.03318 7 8.76705V27.583C7 28.3168 7.29153 29.0206 7.81045 29.5396C8.32937 30.0585 9.03318 30.35 9.76705 30.35C10.5009 30.35 11.2047 30.0585 11.7236 29.5396C12.2426 29.0206 12.5341 28.3168 12.5341 27.583V20.3886H23.6023V27.583C23.6023 28.3168 23.8938 29.0206 24.4127 29.5396C24.9316 30.0585 25.6355 30.35 26.3693 30.35C27.1032 30.35 27.807 30.0585 28.3259 29.5396C28.8448 29.0206 29.1364 28.3168 29.1364 27.583V8.76705C29.1364 8.03318 28.8448 7.32937 28.3259 6.81045C27.807 6.29153 27.1032 6 26.3693 6V6Z" fill="#DBDBDB"/>
</svg>
