<svg width="20" height="20" viewBox="0 0 20 20" fill="none" xmlns="http://www.w3.org/2000/svg">
<path d="M10 4.375L3.75 10.625L4.63125 11.5062L9.375 6.76875V17.5H1.25V18.75H9.375C9.70652 18.75 10.0245 18.6183 10.2589 18.3839C10.4933 18.1495 10.625 17.8315 10.625 17.5V6.76875L15.3688 11.5062L16.25 10.625L10 4.375Z" fill="#F8F8F8"/>
<path d="M3.75 5V2.5H16.25V5H17.5V2.5C17.5 2.16848 17.3683 1.85054 17.1339 1.61612C16.8995 1.3817 16.5815 1.25 16.25 1.25H3.75C3.41848 1.25 3.10054 1.3817 2.86612 1.61612C2.6317 1.85054 2.5 2.16848 2.5 2.5V5H3.75Z" fill="#F8F8F8"/>
</svg>
