<svg width="20" height="20" viewBox="0 0 20 20" fill="none" xmlns="http://www.w3.org/2000/svg">
<path d="M16.25 15.0032H3.75C3.41858 15.0028 3.10083 14.871 2.86648 14.6367C2.63213 14.4023 2.50033 14.0846 2.5 13.7532V5.00317C2.50033 4.67175 2.63213 4.354 2.86648 4.11966C3.10083 3.88531 3.41858 3.7535 3.75 3.75317H16.25C16.5814 3.7535 16.8992 3.88531 17.1335 4.11966C17.3679 4.354 17.4997 4.67175 17.5 5.00317V13.7532C17.4995 14.0845 17.3676 14.4022 17.1333 14.6365C16.899 14.8708 16.5814 15.0027 16.25 15.0032V15.0032ZM3.75 5.00317V13.7532H16.25V5.00317H3.75ZM1.25 16.2532H18.75V17.5032H1.25V16.2532Z" fill="#F8F8F8"/>
</svg>
