<svg width="12" height="12" viewBox="0 0 12 12" fill="none" xmlns="http://www.w3.org/2000/svg">
<path d="M9.75 9.00183H2.25C2.05115 9.00163 1.8605 8.92255 1.71989 8.78194C1.57928 8.64133 1.5002 8.45068 1.5 8.25183V3.00183C1.5002 2.80298 1.57928 2.61233 1.71989 2.47172C1.8605 2.33111 2.05115 2.25203 2.25 2.25183H9.75C9.94885 2.25203 10.1395 2.33111 10.2801 2.47172C10.4207 2.61233 10.4998 2.80298 10.5 3.00183V8.25183C10.4997 8.45065 10.4206 8.64124 10.28 8.78183C10.1394 8.92242 9.94882 9.00153 9.75 9.00183V9.00183ZM2.25 3.00183V8.25183H9.75V3.00183H2.25ZM0.75 9.75183H11.25V10.5018H0.75V9.75183Z" fill="#F8F8F8"/>
</svg>
