<svg width="20" height="20" viewBox="0 0 20 20" fill="none" xmlns="http://www.w3.org/2000/svg">
<line y1="2.5" x2="20" y2="2.5" stroke="#159898"/>
<path d="M5.16222 15.4337H6.58348C6.65371 15.4337 6.71725 15.3886 6.73899 15.32L7.63689 12.5444H11.3021L12.1916 15.32C12.2134 15.3869 12.2752 15.4337 12.3471 15.4337H13.8369C13.8553 15.4337 13.8737 15.4304 13.8904 15.4254C13.9107 15.4184 13.9294 15.4075 13.9454 15.3933C13.9614 15.3791 13.9745 15.3619 13.9838 15.3426C13.9931 15.3233 13.9986 15.3024 13.9997 15.281C14.0009 15.2596 13.9979 15.2382 13.9908 15.218L10.5112 5.11036C10.4999 5.07844 10.4791 5.05075 10.4516 5.03102C10.4241 5.01128 10.3912 5.00046 10.3574 5H8.64682C8.5766 5 8.51473 5.04347 8.49299 5.11036L5.00839 15.218C5.0017 15.2348 5.00003 15.2532 5.00003 15.2716C4.99836 15.3602 5.07193 15.4337 5.16222 15.4337ZM9.44106 6.80417H9.50961L10.9108 11.2151H8.02481L9.44106 6.80417Z" fill="#159898"/>
<line y1="17.5" x2="20" y2="17.5" stroke="#159898"/>
</svg>
