<svg width="20" height="20" viewBox="0 0 20 20" fill="none" xmlns="http://www.w3.org/2000/svg">
<path d="M2.09012 17H2.87971C2.91873 17 2.95403 16.974 2.9661 16.9346L3.46494 15.3385H5.50115L5.99534 16.9346C6.00742 16.9731 6.04179 17 6.08174 17H6.90941C6.91963 17 6.92985 16.9981 6.93914 16.9952C6.95039 16.9912 6.96077 16.9849 6.96967 16.9768C6.97857 16.9686 6.98582 16.9587 6.991 16.9476C6.99619 16.9365 6.9992 16.9245 6.99986 16.9122C7.00052 16.8999 6.99883 16.8876 6.99487 16.876L5.06177 11.0635C5.0555 11.0451 5.04395 11.0292 5.02867 11.0178C5.01339 11.0065 4.99511 11.0003 4.97631 11H4.02601C3.987 11 3.95263 11.025 3.94055 11.0635L2.00466 16.876C2.00094 16.8856 2.00002 16.8962 2.00002 16.9067C1.99909 16.9577 2.03996 17 2.09012 17ZM4.46725 12.0375H4.50534L5.28378 14.574H3.68045L4.46725 12.0375Z" fill="#F8F8F8"/>
<path d="M7.19827 17H8.93537C9.0212 17 9.09886 16.9351 9.12543 16.8365L10.2229 12.8462H14.7025L15.7898 16.8365C15.8163 16.9327 15.8919 17 15.9798 17H17.8007C17.8232 17 17.8457 16.9952 17.8661 16.988C17.8909 16.978 17.9137 16.9623 17.9333 16.9419C17.9529 16.9215 17.9688 16.8967 17.9802 16.869C17.9916 16.8413 17.9982 16.8112 17.9997 16.7804C18.0012 16.7497 17.9974 16.7189 17.9887 16.6899L13.7359 2.15865C13.7221 2.11277 13.6967 2.07296 13.6631 2.04459C13.6295 2.01622 13.5892 2.00066 13.5479 2H11.4572C11.3714 2 11.2958 2.0625 11.2692 2.15865L7.01025 16.6899C7.00208 16.7139 7.00003 16.7404 7.00003 16.7668C6.99799 16.8942 7.08791 17 7.19827 17ZM12.428 4.59375H12.5118L14.2243 10.9351H10.697L12.428 4.59375Z" fill="#F8F8F8"/>
<path d="M2 6.5H5.5V5M5.5 5V8L7 6.5L5.5 5Z" stroke="#F8F8F8"/>
</svg>
