<svg width="20" height="20" viewBox="0 0 20 20" fill="none" xmlns="http://www.w3.org/2000/svg">
<path d="M3.08696 16.5931H3.84883C3.88648 16.5931 3.92054 16.5689 3.93219 16.5321L4.41352 15.0442H6.37825L6.8551 16.5321C6.86675 16.568 6.89991 16.5931 6.93846 16.5931H7.73708C7.74694 16.5931 7.7568 16.5913 7.76576 16.5886C7.77662 16.5848 7.78663 16.579 7.79522 16.5714C7.80381 16.5638 7.81081 16.5545 7.81581 16.5442C7.82081 16.5339 7.82371 16.5226 7.82435 16.5112C7.82499 16.4997 7.82336 16.4883 7.81954 16.4774L5.95429 11.0592C5.94825 11.042 5.9371 11.0272 5.92235 11.0166C5.90761 11.006 5.88998 11.0002 5.87183 11H4.95489C4.91725 11 4.88408 11.0233 4.87243 11.0592L3.0045 16.4774C3.00091 16.4864 3.00001 16.4962 3.00001 16.5061C2.99912 16.5536 3.03856 16.5931 3.08696 16.5931ZM5.38065 11.9671H5.4174L6.16851 14.3316H4.62146L5.38065 11.9671Z" fill="#F8F8F8"/>
<line y1="2.5" x2="20" y2="2.5" stroke="#F8F8F8"/>
<path d="M8.18024 16.5931H9.75943C9.83746 16.5931 9.90805 16.5429 9.93221 16.4667L10.9299 13.3827H15.0023L15.9907 16.4667C16.0148 16.541 16.0836 16.5931 16.1635 16.5931H17.8188C17.8393 16.5931 17.8597 16.5893 17.8783 16.5838C17.9008 16.576 17.9215 16.5639 17.9393 16.5482C17.9571 16.5324 17.9716 16.5132 17.982 16.4918C17.9924 16.4704 17.9984 16.4471 17.9997 16.4234C18.001 16.3996 17.9977 16.3758 17.9897 16.3534L14.1235 5.12262C14.111 5.08716 14.0879 5.05639 14.0573 5.03446C14.0268 5.01254 13.9902 5.00051 13.9526 5H12.052C11.974 5 11.9053 5.0483 11.8811 5.12262L8.00932 16.3534C8.00189 16.372 8.00003 16.3924 8.00003 16.4128C7.99817 16.5113 8.07992 16.5931 8.18024 16.5931ZM12.9345 7.00463H13.0107L14.5676 11.9057H11.3609L12.9345 7.00463Z" fill="#F8F8F8"/>
</svg>
