<svg width="20" height="20" viewBox="0 0 20 20" fill="none" xmlns="http://www.w3.org/2000/svg">
<path d="M2.10815 17H3.05566C3.10247 17 3.14483 16.9654 3.15932 16.9128L3.75793 14.7846H6.20139L6.79441 16.9128C6.80891 16.9641 6.85015 17 6.89808 17H7.8913C7.90356 17 7.91582 16.9974 7.92697 16.9936C7.94047 16.9883 7.95292 16.9799 7.9636 16.969C7.97429 16.9581 7.98299 16.9449 7.98921 16.9301C7.99542 16.9153 7.99903 16.8993 7.99983 16.8829C8.00063 16.8665 7.9986 16.8501 7.99385 16.8346L5.67412 9.08462C5.6666 9.06014 5.65274 9.03891 5.6344 9.02378C5.61607 9.00865 5.59414 9.00035 5.57157 9H4.43122C4.3844 9 4.34315 9.03333 4.32866 9.08462L2.00559 16.8346C2.00113 16.8474 2.00002 16.8615 2.00002 16.8756C1.9989 16.9436 2.04795 17 2.10815 17ZM4.96071 10.3833H5.00641L5.94054 13.7654H4.01654L4.96071 10.3833Z" fill="#159898"/>
<path d="M9.16222 17H10.5835C10.6537 17 10.7172 16.9351 10.739 16.8365L11.6369 12.8462H15.3021L16.1916 16.8365C16.2134 16.9327 16.2752 17 16.3471 17H17.8369C17.8553 17 17.8737 16.9952 17.8904 16.988C17.9107 16.978 17.9294 16.9623 17.9454 16.9419C17.9614 16.9215 17.9745 16.8967 17.9838 16.869C17.9931 16.8413 17.9986 16.8112 17.9997 16.7804C18.0009 16.7497 17.9979 16.7189 17.9908 16.6899L14.5112 2.15865C14.4999 2.11277 14.4791 2.07296 14.4516 2.04459C14.4241 2.01622 14.3912 2.00066 14.3574 2H12.6468C12.5766 2 12.5147 2.0625 12.493 2.15865L9.00839 16.6899C9.0017 16.7139 9.00003 16.7404 9.00003 16.7668C8.99836 16.8942 9.07193 17 9.16222 17ZM13.4411 4.59375H13.5096L14.9108 10.9351H12.0248L13.4411 4.59375Z" fill="#159898"/>
<path d="M3.00888 4.22909L5.66749 4.24578L5.68431 3.01675M5.68431 3.01675L5.69758 5.59223L6.80689 4.25294L5.68431 3.01675Z" stroke="#159898"/>
</svg>
