<svg width="20" height="20" viewBox="0 0 20 20" fill="none" xmlns="http://www.w3.org/2000/svg">
<path d="M13.0901 17H13.8797C13.9187 17 13.954 16.974 13.9661 16.9346L14.4649 15.3385H16.5012L16.9953 16.9346C17.0074 16.9731 17.0418 17 17.0817 17H17.9094C17.9196 17 17.9298 16.9981 17.9391 16.9952C17.9504 16.9912 17.9608 16.9849 17.9697 16.9768C17.9786 16.9686 17.9858 16.9587 17.991 16.9476C17.9962 16.9365 17.9992 16.9245 17.9999 16.9122C18.0005 16.8999 17.9988 16.8876 17.9949 16.876L16.0618 11.0635C16.0555 11.0451 16.044 11.0292 16.0287 11.0178C16.0134 11.0065 15.9951 11.0003 15.9763 11H15.026C14.987 11 14.9526 11.025 14.9406 11.0635L13.0047 16.876C13.0009 16.8856 13 16.8962 13 16.9067C12.9991 16.9577 13.04 17 13.0901 17ZM15.4673 12.0375H15.5053L16.2838 14.574H14.6805L15.4673 12.0375Z" fill="#F8F8F8"/>
<path d="M2.19827 17H3.93537C4.0212 17 4.09886 16.9351 4.12543 16.8365L5.22287 12.8462H9.70254L10.7898 16.8365C10.8163 16.9327 10.8919 17 10.9798 17H12.8007C12.8232 17 12.8457 16.9952 12.8661 16.988C12.8909 16.978 12.9137 16.9623 12.9333 16.9419C12.9529 16.9215 12.9688 16.8967 12.9802 16.869C12.9916 16.8413 12.9982 16.8112 12.9997 16.7804C13.0012 16.7497 12.9974 16.7189 12.9887 16.6899L8.73589 2.15865C8.72211 2.11277 8.69669 2.07296 8.66307 2.04459C8.62945 2.01622 8.58925 2.00066 8.54788 2H6.45723C6.37139 2 6.29578 2.0625 6.26921 2.15865L2.01025 16.6899C2.00208 16.7139 2.00003 16.7404 2.00003 16.7668C1.99799 16.8942 2.08791 17 2.19827 17ZM7.42796 4.59375H7.51175L9.22433 10.9351H5.69699L7.42796 4.59375Z" fill="#F8F8F8"/>
<path d="M12 6.5H15.5V5M15.5 5V8L17 6.5L15.5 5Z" stroke="#F8F8F8"/>
</svg>
