<svg width="20" height="20" viewBox="0 0 20 20" fill="none" xmlns="http://www.w3.org/2000/svg">
<path d="M2.70455 4.18182V3.88182H2.40455V4.18182H2.70455ZM3.54545 4.18182L3.82309 4.06815L3.7468 3.88182H3.54545V4.18182ZM5.52273 9.01136L5.24509 9.12503L5.32138 9.31136H5.52273V9.01136ZM5.59091 9.01136V9.31136H5.79225L5.86854 9.12503L5.59091 9.01136ZM7.56818 4.18182V3.88182H7.36684L7.29055 4.06815L7.56818 4.18182ZM8.40909 4.18182H8.70909V3.88182H8.40909V4.18182ZM8.40909 10V10.3H8.70909V10H8.40909ZM7.75 10H7.45V10.3H7.75V10ZM7.75 5.57955H8.05V5.27955H7.75V5.57955ZM7.69318 5.57955V5.27955H7.49219L7.41573 5.46543L7.69318 5.57955ZM5.875 10V10.3H6.07599L6.15245 10.1141L5.875 10ZM5.23864 10L4.96119 10.1141L5.03764 10.3H5.23864V10ZM3.42045 5.57955L3.6979 5.46543L3.62145 5.27955H3.42045V5.57955ZM3.36364 5.57955V5.27955H3.06364V5.57955H3.36364ZM3.36364 10V10.3H3.66364V10H3.36364ZM2.70455 10H2.40455V10.3H2.70455V10ZM2.70455 4.48182H3.54545V3.88182H2.70455V4.48182ZM3.26782 4.29548L5.24509 9.12503L5.80036 8.8977L3.82309 4.06815L3.26782 4.29548ZM5.52273 9.31136H5.59091V8.71136H5.52273V9.31136ZM5.86854 9.12503L7.84581 4.29548L7.29055 4.06815L5.31328 8.8977L5.86854 9.12503ZM7.56818 4.48182H8.40909V3.88182H7.56818V4.48182ZM8.10909 4.18182V10H8.70909V4.18182H8.10909ZM8.40909 9.7H7.75V10.3H8.40909V9.7ZM8.05 10V5.57955H7.45V10H8.05ZM7.75 5.27955H7.69318V5.87955H7.75V5.27955ZM7.41573 5.46543L5.59755 9.88588L6.15245 10.1141L7.97063 5.69366L7.41573 5.46543ZM5.875 9.7H5.23864V10.3H5.875V9.7ZM5.51608 9.88588L3.6979 5.46543L3.14301 5.69366L4.96119 10.1141L5.51608 9.88588ZM3.42045 5.27955H3.36364V5.87955H3.42045V5.27955ZM3.06364 5.57955V10H3.66364V5.57955H3.06364ZM3.36364 9.7H2.70455V10.3H3.36364V9.7ZM3.00455 10V4.18182H2.40455V10H3.00455ZM10.4463 4.18182H10.7463V3.88182H10.4463V4.18182ZM10.4463 10V10.3H10.7463V10H10.4463ZM9.74173 10H9.44173V10.3H9.74173V10ZM9.74173 4.18182V3.88182H9.44173V4.18182H9.74173ZM10.1463 4.18182V10H10.7463V4.18182H10.1463ZM10.4463 9.7H9.74173V10.3H10.4463V9.7ZM10.0417 10V4.18182H9.44173V10H10.0417ZM9.74173 4.48182H10.4463V3.88182H9.74173V4.48182ZM16.3926 4.18182H16.6926V3.88182H16.3926V4.18182ZM16.3926 10V10.3H16.6926V10H16.3926ZM15.7107 10L15.4643 10.171L15.5538 10.3H15.7107V10ZM12.5403 5.43182L12.7867 5.26077L12.6972 5.13182H12.5403V5.43182ZM12.4835 5.43182V5.13182H12.1835V5.43182H12.4835ZM12.4835 10V10.3H12.7835V10H12.4835ZM11.7789 10H11.4789V10.3H11.7789V10ZM11.7789 4.18182V3.88182H11.4789V4.18182H11.7789ZM12.4607 4.18182L12.7071 4.01064L12.6176 3.88182H12.4607V4.18182ZM15.6426 8.76136L15.3962 8.93254L15.4857 9.06136H15.6426V8.76136ZM15.6994 8.76136V9.06136H15.9994V8.76136H15.6994ZM15.6994 4.18182V3.88182H15.3994V4.18182H15.6994ZM16.0926 4.18182V10H16.6926V4.18182H16.0926ZM16.3926 9.7H15.7107V10.3H16.3926V9.7ZM15.9572 9.82895L12.7867 5.26077L12.2938 5.60287L15.4643 10.171L15.9572 9.82895ZM12.5403 5.13182H12.4835V5.73182H12.5403V5.13182ZM12.1835 5.43182V10H12.7835V5.43182H12.1835ZM12.4835 9.7H11.7789V10.3H12.4835V9.7ZM12.0789 10V4.18182H11.4789V10H12.0789ZM11.7789 4.48182H12.4607V3.88182H11.7789V4.48182ZM12.2144 4.35299L15.3962 8.93254L15.8889 8.59019L12.7071 4.01064L12.2144 4.35299ZM15.6426 9.06136H15.6994V8.46136H15.6426V9.06136ZM15.9994 8.76136V4.18182H15.3994V8.76136H15.9994ZM15.6994 4.48182H16.3926V3.88182H15.6994V4.48182Z" fill="#159898"/>
<path d="M6.42898 13.2727L6.13106 13.308L6.16241 13.5727H6.42898V13.2727ZM6.16974 12.8537L6.00515 13.1045L6.00515 13.1045L6.16974 12.8537ZM5.18963 12.7827L5.0708 12.5072L5.06981 12.5076L5.18963 12.7827ZM4.90909 12.9975L4.66796 12.819L4.66647 12.8211L4.90909 12.9975ZM4.87891 13.5586L4.62859 13.7241L4.63194 13.7289L4.87891 13.5586ZM5.06001 13.7308L4.90027 13.9848L4.90325 13.9866L5.06001 13.7308ZM5.29084 13.8427L5.18731 14.1243L5.19099 14.1256L5.29084 13.8427ZM5.51278 13.9119L5.59078 13.6222L5.58913 13.6218L5.51278 13.9119ZM5.8821 14.0114L5.80411 14.3011L5.80593 14.3015L5.8821 14.0114ZM6.19815 14.1143L6.09219 14.395L6.09313 14.3954L6.19815 14.1143ZM6.53374 14.2937L6.35987 14.5382L6.36297 14.5403L6.53374 14.2937ZM6.80007 14.5813L7.05778 14.4277L7.05778 14.4277L6.80007 14.5813ZM6.75036 15.5455L6.49873 15.3821L6.49788 15.3834L6.75036 15.5455ZM6.30291 15.9237L6.17399 15.6528L6.17336 15.6531L6.30291 15.9237ZM4.91442 15.9379L4.79273 16.2121L4.79337 16.2123L4.91442 15.9379ZM4.46697 15.5863L4.22311 15.761L4.22402 15.7623L4.46697 15.5863ZM4.28409 15.0625V14.7625H3.9619L3.98485 15.0839L4.28409 15.0625ZM4.73864 15.0625L5.03753 15.0367L5.01389 14.7625H4.73864V15.0625ZM4.87713 15.4034L4.65354 15.6035L4.65635 15.6065L4.87713 15.4034ZM5.18608 15.6023L5.08637 15.8852L5.0896 15.8863L5.18608 15.6023ZM6.04368 15.5845L6.15679 15.8624L6.15889 15.8615L6.04368 15.5845ZM6.36151 15.3537L6.59632 15.5404L6.5974 15.539L6.36151 15.3537ZM6.37749 14.7109L6.60152 14.5114L6.60152 14.5114L6.37749 14.7109ZM6.11115 14.5263L5.99262 14.8019L5.99262 14.8019L6.11115 14.5263ZM5.75426 14.402L5.67184 14.6905L5.67397 14.691L5.75426 14.402ZM5.30682 14.2741L5.22393 14.5625L5.2244 14.5626L5.30682 14.2741ZM4.6321 13.9244L4.42967 14.1458L4.42967 14.1458L4.6321 13.9244ZM4.54865 12.7969L4.30619 12.6202L4.30595 12.6205L4.54865 12.7969ZM4.99609 12.4418L5.11906 12.7154L5.11985 12.715L4.99609 12.4418ZM6.25142 12.44L6.12581 12.7124L6.12728 12.7131L6.25142 12.44ZM6.68466 12.7809L6.44324 12.959L6.44419 12.9603L6.68466 12.7809ZM6.85511 13.2727V13.5727H7.16495L7.15496 13.2631L6.85511 13.2727ZM6.7269 13.2374C6.69516 12.9695 6.55993 12.7509 6.33434 12.6029L6.00515 13.1045C6.08259 13.1553 6.12018 13.2161 6.13106 13.308L6.7269 13.2374ZM6.33434 12.6029C6.1243 12.465 5.87819 12.4045 5.61222 12.4045V13.0045C5.78658 13.0045 5.91215 13.0435 6.00515 13.1045L6.33434 12.6029ZM5.61222 12.4045C5.4193 12.4045 5.23648 12.4357 5.0708 12.5072L5.30846 13.0581C5.38426 13.0254 5.48317 13.0045 5.61222 13.0045V12.4045ZM5.06981 12.5076C4.90939 12.5775 4.77115 12.6796 4.66797 12.819L5.15021 13.176C5.18197 13.1331 5.23076 13.092 5.30945 13.0577L5.06981 12.5076ZM4.66647 12.8211C4.56174 12.9651 4.50966 13.1308 4.50966 13.3082H5.10966C5.10966 13.2536 5.12387 13.2122 5.15171 13.174L4.66647 12.8211ZM4.50966 13.3082C4.50966 13.4545 4.54511 13.5977 4.62864 13.724L5.12917 13.3932C5.12037 13.3798 5.10966 13.3561 5.10966 13.3082H4.50966ZM4.63194 13.7289C4.70331 13.8324 4.79384 13.9178 4.90028 13.9848L5.21975 13.4769C5.17941 13.4515 5.1492 13.4221 5.12587 13.3883L4.63194 13.7289ZM4.90325 13.9866C4.99343 14.0419 5.0882 14.0878 5.18732 14.1243L5.39436 13.5611C5.33249 13.5384 5.27338 13.5097 5.21678 13.475L4.90325 13.9866ZM5.19099 14.1256C5.27758 14.1561 5.35952 14.1818 5.43644 14.2021L5.58913 13.6218C5.5311 13.6065 5.46508 13.586 5.39068 13.5598L5.19099 14.1256ZM5.43479 14.2016L5.80411 14.301L5.96009 13.7217L5.59078 13.6222L5.43479 14.2016ZM5.80593 14.3015C5.8883 14.3232 5.98351 14.354 6.09219 14.395L6.30412 13.8337C6.18079 13.7871 6.0653 13.7493 5.95827 13.7212L5.80593 14.3015ZM6.09313 14.3954C6.18481 14.4296 6.27365 14.4768 6.35988 14.5382L6.70759 14.0492C6.58076 13.959 6.44588 13.8867 6.30318 13.8333L6.09313 14.3954ZM6.36297 14.5403C6.43392 14.5895 6.49358 14.653 6.54237 14.7349L7.05778 14.4277C6.96688 14.2752 6.84899 14.1471 6.7045 14.047L6.36297 14.5403ZM6.54237 14.7349C6.5784 14.7954 6.60483 14.883 6.60483 15.0128H7.20483C7.20483 14.8016 7.16142 14.6017 7.05778 14.4277L6.54237 14.7349ZM6.60483 15.0128C6.60483 15.1537 6.56887 15.2741 6.49874 15.3821L7.00197 15.7088C7.13781 15.4996 7.20483 15.2649 7.20483 15.0128H6.60483ZM6.49788 15.3834C6.43074 15.488 6.32792 15.5795 6.174 15.6528L6.43183 16.1945C6.67089 16.0808 6.86637 15.9201 7.00283 15.7075L6.49788 15.3834ZM6.17336 15.6531C6.02845 15.7224 5.83796 15.7639 5.59091 15.7639V16.3639C5.90257 16.3639 6.18675 16.3119 6.43246 16.1942L6.17336 15.6531ZM5.59091 15.7639C5.36207 15.7639 5.17963 15.7269 5.03547 15.6634L4.79337 16.2123C5.03036 16.3169 5.29892 16.3639 5.59091 16.3639V15.7639ZM5.0361 15.6636C4.88933 15.5985 4.78428 15.5129 4.70993 15.4103L4.22402 15.7623C4.36747 15.9603 4.56072 16.1091 4.79274 16.2121L5.0361 15.6636ZM4.71083 15.4116C4.6379 15.3098 4.59391 15.1892 4.58333 15.0411L3.98485 15.0839C4.00268 15.3335 4.08061 15.5622 4.22311 15.761L4.71083 15.4116ZM4.28409 15.3625H4.73864V14.7625H4.28409V15.3625ZM4.43974 15.0883C4.45634 15.2807 4.52376 15.4584 4.65356 15.6034L5.1007 15.2034C5.06952 15.1685 5.04461 15.1189 5.03753 15.0367L4.43974 15.0883ZM4.65635 15.6065C4.77425 15.7347 4.92018 15.8267 5.08637 15.8852L5.28578 15.3193C5.2034 15.2903 5.14336 15.2497 5.09791 15.2003L4.65635 15.6065ZM5.0896 15.8863C5.24882 15.9404 5.41662 15.9662 5.59091 15.9662V15.3662C5.47637 15.3662 5.37429 15.3494 5.28255 15.3182L5.0896 15.8863ZM5.59091 15.9662C5.79151 15.9662 5.98173 15.9336 6.15679 15.8624L5.93057 15.3067C5.83811 15.3443 5.72649 15.3662 5.59091 15.3662V15.9662ZM6.15889 15.8615C6.33222 15.7894 6.48203 15.6841 6.59632 15.5404L6.12669 15.167C6.08473 15.2197 6.02265 15.2683 5.92847 15.3075L6.15889 15.8615ZM6.5974 15.539C6.71917 15.3841 6.77869 15.202 6.77869 15.0057H6.17869C6.17869 15.0745 6.16009 15.1245 6.12561 15.1683L6.5974 15.539ZM6.77869 15.0057C6.77869 14.8261 6.72692 14.6522 6.60152 14.5114L6.15346 14.9105C6.163 14.9212 6.17869 14.9438 6.17869 15.0057H6.77869ZM6.60152 14.5114C6.50004 14.3975 6.37284 14.3123 6.22968 14.2507L5.99262 14.8019C6.06963 14.835 6.11998 14.8729 6.15346 14.9105L6.60152 14.5114ZM6.22968 14.2507C6.10593 14.1975 5.97407 14.1517 5.83455 14.1129L5.67397 14.691C5.79014 14.7233 5.8962 14.7604 5.99262 14.8019L6.22968 14.2507ZM5.83668 14.1135L5.38923 13.9857L5.2244 14.5626L5.67185 14.6904L5.83668 14.1135ZM5.38971 13.9858C5.13659 13.9131 4.95705 13.815 4.83453 13.703L4.42967 14.1458C4.63859 14.3368 4.90887 14.4719 5.22393 14.5625L5.38971 13.9858ZM4.83453 13.703C4.73704 13.6138 4.68352 13.4989 4.68352 13.3295H4.08352C4.08352 13.6502 4.19572 13.9319 4.42967 14.1458L4.83453 13.703ZM4.68352 13.3295C4.68352 13.1835 4.72179 13.069 4.79135 12.9732L4.30595 12.6205C4.15534 12.8278 4.08352 13.0684 4.08352 13.3295H4.68352ZM4.79111 12.9735C4.86907 12.8666 4.97544 12.7799 5.11906 12.7154L4.87313 12.1681C4.6427 12.2717 4.45077 12.4218 4.30619 12.6202L4.79111 12.9735ZM5.11985 12.715C5.26465 12.6495 5.43183 12.6139 5.62642 12.6139V12.0139C5.35699 12.0139 5.10396 12.0636 4.87234 12.1685L5.11985 12.715ZM5.62642 12.6139C5.82464 12.6139 5.98897 12.6493 6.12582 12.7124L6.37703 12.1675C6.14929 12.0625 5.89695 12.0139 5.62642 12.0139V12.6139ZM6.12728 12.7131C6.26852 12.7773 6.37046 12.8603 6.44324 12.959L6.92608 12.6028C6.78579 12.4126 6.59891 12.2684 6.37556 12.1669L6.12728 12.7131ZM6.44419 12.9603C6.5145 13.0545 6.55129 13.159 6.55527 13.2824L7.15496 13.2631C7.1471 13.0195 7.07026 12.7961 6.92513 12.6015L6.44419 12.9603ZM6.85511 12.9727H6.42898V13.5727H6.85511V12.9727ZM8.39416 12.3636H8.69416V12.0636H8.39416V12.3636ZM8.39416 16V16.3H8.69416V16H8.39416ZM7.95382 16H7.65382V16.3H7.95382V16ZM7.95382 12.3636V12.0636H7.65382V12.3636H7.95382ZM8.09416 12.3636V16H8.69416V12.3636H8.09416ZM8.39416 15.7H7.95382V16.3H8.39416V15.7ZM8.25382 16V12.3636H7.65382V16H8.25382ZM7.95382 12.6636H8.39416V12.0636H7.95382V12.6636ZM9.48132 16H9.18132V16.3H9.48132V16ZM9.48132 15.6804L9.23208 15.5134L9.18132 15.5892V15.6804H9.48132ZM11.4415 12.7543L11.6908 12.9212L12.0036 12.4543H11.4415V12.7543ZM9.46001 12.7543H9.16001V13.0543H9.46001V12.7543ZM9.46001 12.3636V12.0636H9.16001V12.3636H9.46001ZM11.9671 12.3636H12.2671V12.0636H11.9671V12.3636ZM11.9671 12.6832L12.2164 12.8502L12.2671 12.7744V12.6832H11.9671ZM10.0069 15.6094L9.75765 15.4424L9.44482 15.9094H10.0069V15.6094ZM11.9884 15.6094H12.2884V15.3094H11.9884V15.6094ZM11.9884 16V16.3H12.2884V16H11.9884ZM9.78132 16V15.6804H9.18132V16H9.78132ZM9.73056 15.8474L11.6908 12.9212L11.1923 12.5873L9.23208 15.5134L9.73056 15.8474ZM11.4415 12.4543H9.46001V13.0543H11.4415V12.4543ZM9.76001 12.7543V12.3636H9.16001V12.7543H9.76001ZM9.46001 12.6636H11.9671V12.0636H9.46001V12.6636ZM11.6671 12.3636V12.6832H12.2671V12.3636H11.6671ZM11.7179 12.5163L9.75765 15.4424L10.2561 15.7763L12.2164 12.8502L11.7179 12.5163ZM10.0069 15.9094H11.9884V15.3094H10.0069V15.9094ZM11.6884 15.6094V16H12.2884V15.6094H11.6884ZM11.9884 15.7H9.48132V16.3H11.9884V15.7ZM13.0521 16H12.7521V16.3H13.0521V16ZM13.0521 12.3636V12.0636H12.7521V12.3636H13.0521ZM15.2467 12.3636H15.5467V12.0636H15.2467V12.3636ZM15.2467 12.7543V13.0543H15.5467V12.7543H15.2467ZM13.4924 12.7543V12.4543H13.1924V12.7543H13.4924ZM13.4924 13.983H13.1924V14.283H13.4924V13.983ZM15.133 13.983H15.433V13.683H15.133V13.983ZM15.133 14.3736V14.6736H15.433V14.3736H15.133ZM13.4924 14.3736V14.0736H13.1924V14.3736H13.4924ZM13.4924 15.6094H13.1924V15.9094H13.4924V15.6094ZM15.2751 15.6094H15.5751V15.3094H15.2751V15.6094ZM15.2751 16V16.3H15.5751V16H15.2751ZM13.3521 16V12.3636H12.7521V16H13.3521ZM13.0521 12.6636H15.2467V12.0636H13.0521V12.6636ZM14.9467 12.3636V12.7543H15.5467V12.3636H14.9467ZM15.2467 12.4543H13.4924V13.0543H15.2467V12.4543ZM13.1924 12.7543V13.983H13.7924V12.7543H13.1924ZM13.4924 14.283H15.133V13.683H13.4924V14.283ZM14.833 13.983V14.3736H15.433V13.983H14.833ZM15.133 14.0736H13.4924V14.6736H15.133V14.0736ZM13.1924 14.3736V15.6094H13.7924V14.3736H13.1924ZM13.4924 15.9094H15.2751V15.3094H13.4924V15.9094ZM14.9751 15.6094V16H15.5751V15.6094H14.9751ZM15.2751 15.7H13.0521V16.3H15.2751V15.7Z" fill="#159898"/>
</svg>
