<svg width="20" height="20" viewBox="0 0 20 20" fill="none" xmlns="http://www.w3.org/2000/svg">
<path d="M12.1081 17H13.0557C13.1025 17 13.1448 16.9654 13.1593 16.9128L13.7579 14.7846H16.2014L16.7944 16.9128C16.8089 16.9641 16.8502 17 16.8981 17H17.8913C17.9036 17 17.9158 16.9974 17.927 16.9936C17.9405 16.9883 17.9529 16.9799 17.9636 16.969C17.9743 16.9581 17.983 16.9449 17.9892 16.9301C17.9954 16.9153 17.999 16.8993 17.9998 16.8829C18.0006 16.8665 17.9986 16.8501 17.9938 16.8346L15.6741 9.08462C15.6666 9.06014 15.6527 9.03891 15.6344 9.02378C15.6161 9.00865 15.5941 9.00035 15.5716 9H14.4312C14.3844 9 14.3432 9.03333 14.3287 9.08462L12.0056 16.8346C12.0011 16.8474 12 16.8615 12 16.8756C11.9989 16.9436 12.048 17 12.1081 17ZM14.9607 10.3833H15.0064L15.9405 13.7654H14.0165L14.9607 10.3833Z" fill="#159898"/>
<path d="M2.16222 17H3.58348C3.65371 17 3.71725 16.9351 3.73899 16.8365L4.63689 12.8462H8.30208L9.19162 16.8365C9.21336 16.9327 9.27522 17 9.34712 17H10.8369C10.8553 17 10.8737 16.9952 10.8904 16.988C10.9107 16.978 10.9294 16.9623 10.9454 16.9419C10.9614 16.9215 10.9745 16.8967 10.9838 16.869C10.9931 16.8413 10.9986 16.8112 10.9997 16.7804C11.0009 16.7497 10.9979 16.7189 10.9908 16.6899L7.51119 2.15865C7.4999 2.11277 7.47911 2.07296 7.4516 2.04459C7.4241 2.01622 7.3912 2.00066 7.35736 2H5.64682C5.5766 2 5.51473 2.0625 5.49299 2.15865L2.00839 16.6899C2.0017 16.7139 2.00003 16.7404 2.00003 16.7668C1.99836 16.8942 2.07193 17 2.16222 17ZM6.44106 4.59375H6.50961L7.91081 10.9351H5.02481L6.44106 4.59375Z" fill="#159898"/>
<path d="M15.0297 2.02273L14.9994 4.68122L16.1182 4.68121M16.1182 4.68121L13.8766 4.68122L14.9863 5.82057L16.1182 4.68121Z" stroke="#159898"/>
</svg>
