<svg width="20" height="20" viewBox="0 0 20 20" fill="none" xmlns="http://www.w3.org/2000/svg">
<path d="M12.087 13.5931H12.8488C12.8865 13.5931 12.9205 13.5689 12.9322 13.5321L13.4135 12.0442H15.3783L15.8551 13.5321C15.8667 13.568 15.8999 13.5931 15.9385 13.5931H16.7371C16.7469 13.5931 16.7568 13.5913 16.7658 13.5886C16.7766 13.5848 16.7866 13.579 16.7952 13.5714C16.8038 13.5638 16.8108 13.5545 16.8158 13.5442C16.8208 13.5339 16.8237 13.5226 16.8244 13.5112C16.825 13.4997 16.8234 13.4883 16.8195 13.4774L14.9543 8.05916C14.9482 8.04205 14.9371 8.0272 14.9224 8.01663C14.9076 8.00605 14.89 8.00025 14.8718 8H13.9549C13.9172 8 13.8841 8.0233 13.8724 8.05916L12.0045 13.4774C12.0009 13.4864 12 13.4962 12 13.5061C11.9991 13.5536 12.0386 13.5931 12.087 13.5931ZM14.3806 8.96713H14.4174L15.1685 11.3316H13.6215L14.3806 8.96713Z" fill="#F8F8F8"/>
<line y1="16.5" x2="20" y2="16.5" stroke="#F8F8F8"/>
<path d="M2.18024 13.5931H3.75943C3.83746 13.5931 3.90805 13.5429 3.93221 13.4667L4.92988 10.3827H9.00231L9.99069 13.4667C10.0148 13.541 10.0836 13.5931 10.1635 13.5931H11.8188C11.8393 13.5931 11.8597 13.5893 11.8783 13.5838C11.9008 13.576 11.9215 13.5639 11.9393 13.5482C11.9571 13.5324 11.9716 13.5132 11.982 13.4918C11.9924 13.4704 11.9984 13.4471 11.9997 13.4234C12.001 13.3996 11.9977 13.3758 11.9897 13.3534L8.12354 2.12262C8.11101 2.08716 8.0879 2.05639 8.05734 2.03446C8.02678 2.01254 7.99023 2.00051 7.95262 2H6.05203C5.974 2 5.90525 2.0483 5.8811 2.12262L2.00932 13.3534C2.00189 13.372 2.00003 13.3924 2.00003 13.4128C1.99817 13.5113 2.07992 13.5931 2.18024 13.5931ZM6.93451 4.00463H7.01068L8.56757 8.90567H5.3609L6.93451 4.00463Z" fill="#F8F8F8"/>
</svg>
