<svg width="20" height="20" viewBox="0 0 20 20" fill="none" xmlns="http://www.w3.org/2000/svg">
<path d="M2.70455 4.18182V3.88182H2.40455V4.18182H2.70455ZM3.54545 4.18182L3.82309 4.06815L3.7468 3.88182H3.54545V4.18182ZM5.52273 9.01136L5.24509 9.12503L5.32138 9.31136H5.52273V9.01136ZM5.59091 9.01136V9.31136H5.79225L5.86854 9.12503L5.59091 9.01136ZM7.56818 4.18182V3.88182H7.36684L7.29055 4.06815L7.56818 4.18182ZM8.40909 4.18182H8.70909V3.88182H8.40909V4.18182ZM8.40909 10V10.3H8.70909V10H8.40909ZM7.75 10H7.45V10.3H7.75V10ZM7.75 5.57955H8.05V5.27955H7.75V5.57955ZM7.69318 5.57955V5.27955H7.49219L7.41573 5.46543L7.69318 5.57955ZM5.875 10V10.3H6.07599L6.15245 10.1141L5.875 10ZM5.23864 10L4.96119 10.1141L5.03764 10.3H5.23864V10ZM3.42045 5.57955L3.6979 5.46543L3.62145 5.27955H3.42045V5.57955ZM3.36364 5.57955V5.27955H3.06364V5.57955H3.36364ZM3.36364 10V10.3H3.66364V10H3.36364ZM2.70455 10H2.40455V10.3H2.70455V10ZM2.70455 4.48182H3.54545V3.88182H2.70455V4.48182ZM3.26782 4.29548L5.24509 9.12503L5.80036 8.8977L3.82309 4.06815L3.26782 4.29548ZM5.52273 9.31136H5.59091V8.71136H5.52273V9.31136ZM5.86854 9.12503L7.84581 4.29548L7.29055 4.06815L5.31328 8.8977L5.86854 9.12503ZM7.56818 4.48182H8.40909V3.88182H7.56818V4.48182ZM8.10909 4.18182V10H8.70909V4.18182H8.10909ZM8.40909 9.7H7.75V10.3H8.40909V9.7ZM8.05 10V5.57955H7.45V10H8.05ZM7.75 5.27955H7.69318V5.87955H7.75V5.27955ZM7.41573 5.46543L5.59755 9.88588L6.15245 10.1141L7.97063 5.69366L7.41573 5.46543ZM5.875 9.7H5.23864V10.3H5.875V9.7ZM5.51608 9.88588L3.6979 5.46543L3.14301 5.69366L4.96119 10.1141L5.51608 9.88588ZM3.42045 5.27955H3.36364V5.87955H3.42045V5.27955ZM3.06364 5.57955V10H3.66364V5.57955H3.06364ZM3.36364 9.7H2.70455V10.3H3.36364V9.7ZM3.00455 10V4.18182H2.40455V10H3.00455ZM10.4463 4.18182H10.7463V3.88182H10.4463V4.18182ZM10.4463 10V10.3H10.7463V10H10.4463ZM9.74173 10H9.44173V10.3H9.74173V10ZM9.74173 4.18182V3.88182H9.44173V4.18182H9.74173ZM10.1463 4.18182V10H10.7463V4.18182H10.1463ZM10.4463 9.7H9.74173V10.3H10.4463V9.7ZM10.0417 10V4.18182H9.44173V10H10.0417ZM9.74173 4.48182H10.4463V3.88182H9.74173V4.48182ZM16.3926 4.18182H16.6926V3.88182H16.3926V4.18182ZM16.3926 10V10.3H16.6926V10H16.3926ZM15.7107 10L15.4643 10.171L15.5538 10.3H15.7107V10ZM12.5403 5.43182L12.7867 5.26077L12.6972 5.13182H12.5403V5.43182ZM12.4835 5.43182V5.13182H12.1835V5.43182H12.4835ZM12.4835 10V10.3H12.7835V10H12.4835ZM11.7789 10H11.4789V10.3H11.7789V10ZM11.7789 4.18182V3.88182H11.4789V4.18182H11.7789ZM12.4607 4.18182L12.7071 4.01064L12.6176 3.88182H12.4607V4.18182ZM15.6426 8.76136L15.3962 8.93254L15.4857 9.06136H15.6426V8.76136ZM15.6994 8.76136V9.06136H15.9994V8.76136H15.6994ZM15.6994 4.18182V3.88182H15.3994V4.18182H15.6994ZM16.0926 4.18182V10H16.6926V4.18182H16.0926ZM16.3926 9.7H15.7107V10.3H16.3926V9.7ZM15.9572 9.82895L12.7867 5.26077L12.2938 5.60287L15.4643 10.171L15.9572 9.82895ZM12.5403 5.13182H12.4835V5.73182H12.5403V5.13182ZM12.1835 5.43182V10H12.7835V5.43182H12.1835ZM12.4835 9.7H11.7789V10.3H12.4835V9.7ZM12.0789 10V4.18182H11.4789V10H12.0789ZM11.7789 4.48182H12.4607V3.88182H11.7789V4.48182ZM12.2144 4.35299L15.3962 8.93254L15.8889 8.59019L12.7071 4.01064L12.2144 4.35299ZM15.6426 9.06136H15.6994V8.46136H15.6426V9.06136ZM15.9994 8.76136V4.18182H15.3994V8.76136H15.9994ZM15.6994 4.48182H16.3926V3.88182H15.6994V4.48182Z" fill="#F8F8F8"/>
<path d="M2.10085 16L1.81148 16.0791L1.87187 16.3H2.10085V16ZM1.10653 12.3636V12.0636H0.71349L0.817157 12.4428L1.10653 12.3636ZM1.55398 12.3636L1.84456 12.2891L1.78672 12.0636H1.55398V12.3636ZM2.31392 15.3253L2.02333 15.3998L2.08118 15.6253H2.31392V15.3253ZM2.34943 15.3253V15.6253H2.58109L2.63968 15.4012L2.34943 15.3253ZM3.12358 12.3636V12.0636H2.89192L2.83333 12.2878L3.12358 12.3636ZM3.62074 12.3636L3.91099 12.2878L3.8524 12.0636H3.62074V12.3636ZM4.39489 15.3253L4.10464 15.4012L4.16322 15.6253H4.39489V15.3253ZM4.4304 15.3253V15.6253H4.66314L4.72098 15.3998L4.4304 15.3253ZM5.19034 12.3636V12.0636H4.9576L4.89975 12.2891L5.19034 12.3636ZM5.63778 12.3636L5.92716 12.4428L6.03083 12.0636H5.63778V12.3636ZM4.64347 16V16.3H4.87245L4.93284 16.0791L4.64347 16ZM4.18892 16L3.8998 16.0801L3.96072 16.3H4.18892V16ZM3.38636 13.1023L3.67548 13.0222L3.61457 12.8023H3.38636V13.1023ZM3.35795 13.1023V12.8023H3.12975L3.06884 13.0222L3.35795 13.1023ZM2.5554 16V16.3H2.7836L2.84451 16.0801L2.5554 16ZM2.39023 15.9209L1.39591 12.2845L0.817157 12.4428L1.81148 16.0791L2.39023 15.9209ZM1.10653 12.6636H1.55398V12.0636H1.10653V12.6636ZM1.26339 12.4382L2.02333 15.3998L2.60451 15.2507L1.84456 12.2891L1.26339 12.4382ZM2.31392 15.6253H2.34943V15.0253H2.31392V15.6253ZM2.63968 15.4012L3.41383 12.4395L2.83333 12.2878L2.05918 15.2494L2.63968 15.4012ZM3.12358 12.6636H3.62074V12.0636H3.12358V12.6636ZM3.33049 12.4395L4.10464 15.4012L4.68513 15.2494L3.91099 12.2878L3.33049 12.4395ZM4.39489 15.6253H4.4304V15.0253H4.39489V15.6253ZM4.72098 15.3998L5.48093 12.4382L4.89975 12.2891L4.13981 15.2507L4.72098 15.3998ZM5.19034 12.6636H5.63778V12.0636H5.19034V12.6636ZM5.34841 12.2845L4.35409 15.9209L4.93284 16.0791L5.92716 12.4428L5.34841 12.2845ZM4.64347 15.7H4.18892V16.3H4.64347V15.7ZM4.47804 15.9199L3.67548 13.0222L3.09725 13.1823L3.8998 16.0801L4.47804 15.9199ZM3.38636 12.8023H3.35795V13.4023H3.38636V12.8023ZM3.06884 13.0222L2.26628 15.9199L2.84451 16.0801L3.64707 13.1823L3.06884 13.0222ZM2.5554 15.7H2.10085V16.3H2.5554V15.7ZM6.95178 12.3636H7.25178V12.0636H6.95178V12.3636ZM6.95178 16V16.3H7.25178V16H6.95178ZM6.51143 16H6.21143V16.3H6.51143V16ZM6.51143 12.3636V12.0636H6.21143V12.3636H6.51143ZM6.65178 12.3636V16H7.25178V12.3636H6.65178ZM6.95178 15.7H6.51143V16.3H6.95178V15.7ZM6.81143 16V12.3636H6.21143V16H6.81143ZM6.51143 12.6636H6.95178V12.0636H6.51143V12.6636ZM8.15968 16H7.85968V16.3H8.15968V16ZM8.15968 12.3636V12.0636H7.85968V12.3636H8.15968ZM10.2371 12.582L10.0865 12.8415L10.0875 12.8421L10.2371 12.582ZM10.8142 13.2053L10.5451 13.338L10.5454 13.3385L10.8142 13.2053ZM10.8124 15.1531L11.0812 15.2863L11.0814 15.2858L10.8124 15.1531ZM10.2229 15.7816L10.3703 16.0429L10.3712 16.0424L10.2229 15.7816ZM8.60002 15.6094H8.30002V15.9094H8.60002V15.6094ZM10.0009 15.4354L9.84911 15.1766L10.0009 15.4354ZM10.4448 13.4165L10.1713 13.5397L10.1715 13.5402L10.4448 13.4165ZM10.0151 12.9265L9.86033 13.1835L9.8615 13.1842L10.0151 12.9265ZM8.60002 12.7543V12.4543H8.30002V12.7543H8.60002ZM9.28184 15.7H8.15968V16.3H9.28184V15.7ZM8.45968 16V12.3636H7.85968V16H8.45968ZM8.15968 12.6636H9.33155V12.0636H8.15968V12.6636ZM9.33155 12.6636C9.6428 12.6636 9.89026 12.7276 10.0865 12.8415L10.3876 12.3225C10.082 12.1452 9.72579 12.0636 9.33155 12.0636V12.6636ZM10.0875 12.8421C10.2845 12.9555 10.4364 13.1178 10.5451 13.338L11.0832 13.0725C10.9243 12.7506 10.6915 12.4974 10.3867 12.322L10.0875 12.8421ZM10.5454 13.3385C10.6541 13.5579 10.7148 13.8332 10.7148 14.1747H11.3148C11.3148 13.7633 11.2417 13.3924 11.0829 13.072L10.5454 13.3385ZM10.7148 14.1747C10.7148 14.5184 10.6536 14.7969 10.5434 15.0203L11.0814 15.2858C11.2411 14.9623 11.3148 14.5886 11.3148 14.1747H10.7148ZM10.5436 15.0198C10.4345 15.2399 10.2794 15.4043 10.0746 15.5208L10.3712 16.0424C10.6825 15.8653 10.9203 15.6108 11.0812 15.2863L10.5436 15.0198ZM10.0755 15.5203C9.87221 15.635 9.61207 15.7 9.28184 15.7V16.3C9.69024 16.3 10.0575 16.2194 10.3703 16.0429L10.0755 15.5203ZM8.60002 15.9094H9.25343V15.3094H8.60002V15.9094ZM9.25343 15.9094C9.59127 15.9094 9.89685 15.8443 10.1528 15.6941L9.84911 15.1766C9.70968 15.2585 9.51691 15.3094 9.25343 15.3094V15.9094ZM10.1528 15.6941C10.4054 15.5459 10.5944 15.3329 10.7163 15.0638L10.1698 14.8162C10.0976 14.9756 9.99187 15.0929 9.84911 15.1766L10.1528 15.6941ZM10.7163 15.0638C10.8349 14.802 10.8887 14.5027 10.8887 14.1747H10.2887C10.2887 14.4386 10.2453 14.6495 10.1698 14.8162L10.7163 15.0638ZM10.8887 14.1747C10.8887 13.8493 10.8356 13.5524 10.7182 13.2929L10.1715 13.5402C10.2458 13.7045 10.2887 13.913 10.2887 14.1747H10.8887ZM10.7184 13.2934C10.5987 13.0274 10.4151 12.8157 10.1688 12.6688L9.8615 13.1842C9.99636 13.2646 10.0992 13.3795 10.1713 13.5397L10.7184 13.2934ZM10.17 12.6695C9.92137 12.5198 9.62692 12.4543 9.30314 12.4543V13.0543C9.54755 13.0543 9.72777 13.1036 9.86033 13.1835L10.17 12.6695ZM9.30314 12.4543H8.60002V13.0543H9.30314V12.4543ZM8.30002 12.7543V15.6094H8.90002V12.7543H8.30002ZM11.7282 12.7543H11.4282V13.0543H11.7282V12.7543ZM11.7282 12.3636V12.0636H11.4282V12.3636H11.7282ZM14.4555 12.3636H14.7555V12.0636H14.4555V12.3636ZM14.4555 12.7543V13.0543H14.7555V12.7543H14.4555ZM13.312 12.7543V12.4543H13.012V12.7543H13.312ZM13.312 16V16.3H13.612V16H13.312ZM12.8717 16H12.5717V16.3H12.8717V16ZM12.8717 12.7543H13.1717V12.4543H12.8717V12.7543ZM12.0282 12.7543V12.3636H11.4282V12.7543H12.0282ZM11.7282 12.6636H14.4555V12.0636H11.7282V12.6636ZM14.1555 12.3636V12.7543H14.7555V12.3636H14.1555ZM14.4555 12.4543H13.312V13.0543H14.4555V12.4543ZM13.012 12.7543V16H13.612V12.7543H13.012ZM13.312 15.7H12.8717V16.3H13.312V15.7ZM13.1717 16V12.7543H12.5717V16H13.1717ZM12.8717 12.4543H11.7282V13.0543H12.8717V12.4543ZM15.4601 16H15.1601V16.3H15.4601V16ZM15.4601 12.3636V12.0636H15.1601V12.3636H15.4601ZM15.9004 12.3636H16.2004V12.0636H15.9004V12.3636ZM15.9004 13.983H15.6004V14.283H15.9004V13.983ZM17.8393 13.983V14.283H18.1393V13.983H17.8393ZM17.8393 12.3636V12.0636H17.5393V12.3636H17.8393ZM18.2797 12.3636H18.5797V12.0636H18.2797V12.3636ZM18.2797 16V16.3H18.5797V16H18.2797ZM17.8393 16H17.5393V16.3H17.8393V16ZM17.8393 14.3736H18.1393V14.0736H17.8393V14.3736ZM15.9004 14.3736V14.0736H15.6004V14.3736H15.9004ZM15.9004 16V16.3H16.2004V16H15.9004ZM15.7601 16V12.3636H15.1601V16H15.7601ZM15.4601 12.6636H15.9004V12.0636H15.4601V12.6636ZM15.6004 12.3636V13.983H16.2004V12.3636H15.6004ZM15.9004 14.283H17.8393V13.683H15.9004V14.283ZM18.1393 13.983V12.3636H17.5393V13.983H18.1393ZM17.8393 12.6636H18.2797V12.0636H17.8393V12.6636ZM17.9797 12.3636V16H18.5797V12.3636H17.9797ZM18.2797 15.7H17.8393V16.3H18.2797V15.7ZM18.1393 16V14.3736H17.5393V16H18.1393ZM17.8393 14.0736H15.9004V14.6736H17.8393V14.0736ZM15.6004 14.3736V16H16.2004V14.3736H15.6004ZM15.9004 15.7H15.4601V16.3H15.9004V15.7Z" fill="#F8F8F8"/>
</svg>
