<svg width="14" height="14" viewBox="0 0 14 14" fill="none" xmlns="http://www.w3.org/2000/svg">
<path d="M9.625 1.75H4.375C4.14301 1.75023 3.92058 1.84249 3.75654 2.00654C3.59249 2.17058 3.50023 2.39301 3.5 2.625V12.25C3.50023 12.482 3.59249 12.7044 3.75654 12.8685C3.92058 13.0325 4.14301 13.1248 4.375 13.125H9.625C9.85696 13.1247 10.0793 13.0324 10.2433 12.8683C10.4074 12.7043 10.4997 12.482 10.5 12.25V2.625C10.4998 2.39301 10.4075 2.17058 10.2435 2.00654C10.0794 1.84249 9.85699 1.75023 9.625 1.75ZM9.625 2.625V3.5H4.375V2.625H9.625ZM4.375 12.25V4.375H9.625V12.25H4.375Z" fill="#F8F8F8"/>
</svg>
