<svg width="12" height="12" viewBox="0 0 12 12" fill="none" xmlns="http://www.w3.org/2000/svg">
<path d="M8.25 1.5H3.75C3.55115 1.5002 3.3605 1.57928 3.21989 1.71989C3.07928 1.8605 3.0002 2.05115 3 2.25V10.5C3.0002 10.6989 3.07928 10.8895 3.21989 11.0301C3.3605 11.1707 3.55115 11.2498 3.75 11.25H8.25C8.44882 11.2497 8.63941 11.1706 8.78 11.03C8.92059 10.8894 8.9997 10.6988 9 10.5V2.25C8.9998 2.05115 8.92072 1.8605 8.78011 1.71989C8.6395 1.57928 8.44885 1.5002 8.25 1.5ZM8.25 2.25V3H3.75V2.25H8.25ZM3.75 10.5V3.75H8.25V10.5H3.75Z" fill="#F8F8F8"/>
</svg>
