<svg width="20" height="20" viewBox="0 0 20 20" fill="none" xmlns="http://www.w3.org/2000/svg">
<path d="M10 4.16667H18.3333V5.83333H10V4.16667ZM10 15.8333V14.1667H18.3333V15.8333H10ZM10 9.16667H18.3333V10.8333H10V9.16667ZM7.5 10.8333V12.5L4.725 15.8333H7.5V17.5H2.5V15.8333L5.275 12.5H2.5V10.8333H7.5ZM5.83333 2.5H4.16667C3.25 2.5 2.5 3.25 2.5 4.16667V9.16667H4.16667V7.5H5.83333V9.16667H7.5V4.16667C7.5 3.72464 7.32441 3.30072 7.01184 2.98816C6.69928 2.67559 6.27536 2.5 5.83333 2.5ZM5.83333 5.83333H4.16667V4.16667H5.83333V5.83333Z" fill="#F8F8F8"/>
</svg>
