<svg width="40" height="40" viewBox="0 0 40 40" fill="none" xmlns="http://www.w3.org/2000/svg">
<path d="M32.6917 21.6667C32.7643 21.114 32.8033 20.5574 32.8084 20C32.8033 19.4426 32.7643 18.886 32.6917 18.3333L36.3001 15.5083C36.463 15.3839 36.5743 15.2037 36.6128 15.0023C36.6512 14.8009 36.614 14.5924 36.5084 14.4167L33.0917 8.49166C32.9928 8.31394 32.8322 8.17855 32.6403 8.11101C32.4485 8.04348 32.2385 8.04845 32.0501 8.125L27.7917 9.84166C26.9056 9.1654 25.9367 8.60529 24.9084 8.175L24.2667 3.65C24.2384 3.44977 24.1383 3.26666 23.985 3.1348C23.8316 3.00295 23.6356 2.93134 23.4334 2.93333H16.5834C16.3812 2.93134 16.1851 3.00295 16.0318 3.1348C15.8785 3.26666 15.7784 3.44977 15.7501 3.65L15.1084 8.175C14.0788 8.60261 13.1095 9.16291 12.2251 9.84166L7.95005 8.125C7.76159 8.04845 7.55164 8.04348 7.35977 8.11101C7.16789 8.17855 7.00735 8.31394 6.90839 8.49166L3.49172 14.4167C3.38606 14.5924 3.3489 14.8009 3.38733 15.0023C3.42577 15.2037 3.53711 15.3839 3.70005 15.5083L7.30005 18.3333C7.22774 18.886 7.18878 19.4426 7.18339 20C7.1885 20.5574 7.22746 21.114 7.30005 21.6667L3.70005 24.4917C3.53711 24.6161 3.42577 24.7963 3.38733 24.9977C3.3489 25.1991 3.38606 25.4076 3.49172 25.5833L6.90839 31.5083C7.00735 31.686 7.16789 31.8214 7.35977 31.889C7.55164 31.9565 7.76159 31.9515 7.95005 31.875L12.2084 30.1583C13.0945 30.8346 14.0635 31.3947 15.0917 31.825L15.7334 36.35C15.7617 36.5502 15.8618 36.7333 16.0152 36.8652C16.1685 36.997 16.3645 37.0687 16.5667 37.0667H23.4001C23.6023 37.0687 23.7983 36.997 23.9516 36.8652C24.1049 36.7333 24.2051 36.5502 24.2334 36.35L24.8751 31.825C25.9046 31.3974 26.874 30.8371 27.7584 30.1583L32.0167 31.875C32.2052 31.9515 32.4151 31.9565 32.607 31.889C32.7989 31.8214 32.9594 31.686 33.0584 31.5083L36.4751 25.5833C36.5807 25.4076 36.6179 25.1991 36.5794 24.9977C36.541 24.7963 36.4297 24.6161 36.2667 24.4917L32.6917 21.6667ZM20.0001 25.9833C18.8163 25.985 17.6587 25.6355 16.6736 24.979C15.6886 24.3226 14.9204 23.3887 14.4662 22.2955C14.0121 21.2023 13.8924 19.999 14.1223 18.8378C14.3523 17.6766 14.9215 16.6097 15.7579 15.7721C16.5944 14.9345 17.6605 14.3638 18.8214 14.1322C19.9822 13.9007 21.1857 14.0187 22.2795 14.4713C23.3733 14.9239 24.3083 15.6908 24.9661 16.675C25.6239 17.6591 25.9751 18.8163 25.9751 20C25.9761 20.7853 25.8224 21.5632 25.5226 22.2891C25.2228 23.015 24.7829 23.6746 24.228 24.2303C23.673 24.7861 23.014 25.2269 22.2885 25.5277C21.563 25.8285 20.7854 25.9833 20.0001 25.9833Z" stroke="#F8F8F8" stroke-width="2" stroke-linecap="round" stroke-linejoin="round"/>
</svg>
