<svg width="24" height="24" viewBox="0 0 24 24" fill="none" xmlns="http://www.w3.org/2000/svg">
<path d="M19.6149 13C19.6585 12.6684 19.6819 12.3344 19.6849 12C19.6819 11.6656 19.6585 11.3316 19.6149 11L21.7799 9.305C21.8777 9.23033 21.9445 9.12223 21.9676 9.00138C21.9906 8.88054 21.9683 8.75544 21.9049 8.65L19.8549 5.095C19.7956 4.98837 19.6992 4.90714 19.5841 4.86662C19.469 4.82609 19.343 4.82907 19.2299 4.875L16.6749 5.905C16.1433 5.49924 15.5619 5.16318 14.9449 4.905L14.5599 2.19C14.543 2.06987 14.4829 1.96 14.3909 1.88089C14.2989 1.80177 14.1813 1.75881 14.0599 1.76H9.94993C9.82861 1.75881 9.71099 1.80177 9.61899 1.88089C9.527 1.96 9.46691 2.06987 9.44993 2.19L9.06493 4.905C8.44718 5.16157 7.86559 5.49775 7.33493 5.905L4.76993 4.875C4.65686 4.82907 4.53089 4.82609 4.41576 4.86662C4.30064 4.90714 4.20431 4.98837 4.14493 5.095L2.09494 8.65C2.03154 8.75544 2.00924 8.88054 2.0323 9.00138C2.05536 9.12223 2.12217 9.23033 2.21994 9.305L4.37993 11C4.33655 11.3316 4.31317 11.6656 4.30993 12C4.313 12.3344 4.33638 12.6684 4.37993 13L2.21994 14.695C2.12217 14.7697 2.05536 14.8778 2.0323 14.9986C2.00924 15.1195 2.03154 15.2446 2.09494 15.35L4.14493 18.905C4.20431 19.0116 4.30064 19.0929 4.41576 19.1334C4.53089 19.1739 4.65686 19.1709 4.76993 19.125L7.32493 18.095C7.85659 18.5008 8.43797 18.8368 9.05493 19.095L9.43993 21.81C9.45691 21.9301 9.517 22.04 9.60899 22.1191C9.70098 22.1982 9.81861 22.2412 9.93993 22.24H14.0399C14.1613 22.2412 14.2789 22.1982 14.3709 22.1191C14.4629 22.04 14.523 21.9301 14.5399 21.81L14.9249 19.095C15.5427 18.8384 16.1243 18.5023 16.6549 18.095L19.2099 19.125C19.323 19.1709 19.449 19.1739 19.5641 19.1334C19.6792 19.0929 19.7756 19.0116 19.8349 18.905L21.8849 15.35C21.9483 15.2446 21.9706 15.1195 21.9476 14.9986C21.9245 14.8778 21.8577 14.7697 21.7599 14.695L19.6149 13ZM11.9999 15.59C11.2897 15.591 10.5951 15.3813 10.0041 14.9874C9.41305 14.5935 8.95213 14.0332 8.67964 13.3773C8.40716 12.7214 8.33535 11.9994 8.47331 11.3027C8.61126 10.606 8.95278 9.96583 9.45465 9.46326C9.95652 8.96069 10.5962 8.61828 11.2927 8.47935C11.9892 8.34043 12.7113 8.41123 13.3676 8.6828C14.0239 8.95437 14.5849 9.41451 14.9796 10.005C15.3743 10.5955 15.5849 11.2898 15.5849 12C15.5856 12.4712 15.4933 12.9379 15.3135 13.3735C15.1336 13.809 14.8696 14.2048 14.5367 14.5382C14.2037 14.8716 13.8083 15.1362 13.373 15.3166C12.9377 15.4971 12.4711 15.59 11.9999 15.59Z" stroke="#F8F8F8" stroke-width="2" stroke-linecap="round" stroke-linejoin="round"/>
</svg>
