<svg width="20" height="20" viewBox="0 0 20 20" fill="none" xmlns="http://www.w3.org/2000/svg">
<path d="M15.5472 2.08496V8.74996H14.2372V3.35496H14.1734L12.6597 4.42871V3.21746L14.2372 2.08496H15.5447H15.5472Z" fill="#F8F8F8"/>
<path fill-rule="evenodd" clip-rule="evenodd" d="M14.2 17.6225C12.7787 17.6225 12.065 16.8012 11.9975 16.025H13.2525C13.325 16.3037 13.6812 16.5875 14.2187 16.5875C15.2487 16.5875 15.6737 15.5512 15.635 14.2675H15.5612C15.3762 14.755 14.8487 15.195 13.985 15.195C12.8475 15.195 11.835 14.4287 11.835 12.9975C11.835 11.5625 12.895 10.7037 14.3012 10.7037C15.6637 10.7037 16.88 11.4987 16.88 14.0625C16.88 16.3962 15.9762 17.6225 14.1987 17.6225H14.2ZM14.2775 14.2037C14.9075 14.2037 15.4437 13.7837 15.4437 12.9887C15.4437 12.1975 14.9462 11.7287 14.2687 11.7287C13.6187 11.7287 13.11 12.1975 13.11 12.9787C13.11 13.7787 13.6325 14.2037 14.2775 14.2037V14.2037Z" fill="#F8F8F8"/>
<path d="M5.62481 3.125C5.62481 2.95924 5.55896 2.80027 5.44175 2.68306C5.32454 2.56585 5.16557 2.5 4.99981 2.5C4.83405 2.5 4.67508 2.56585 4.55787 2.68306C4.44066 2.80027 4.37481 2.95924 4.37481 3.125V15.3663L2.94231 13.9325C2.8842 13.8744 2.81522 13.8283 2.73929 13.7968C2.66337 13.7654 2.58199 13.7492 2.49981 13.7492C2.41763 13.7492 2.33626 13.7654 2.26033 13.7968C2.18441 13.8283 2.11542 13.8744 2.05731 13.9325C1.9992 13.9906 1.95311 14.0596 1.92166 14.1355C1.89021 14.2114 1.87402 14.2928 1.87402 14.375C1.87402 14.4572 1.89021 14.5386 1.92166 14.6145C1.95311 14.6904 1.9992 14.7594 2.05731 14.8175L4.55731 17.3162L4.56606 17.325C4.68341 17.4394 4.84122 17.5028 5.00511 17.5014C5.169 17.5 5.3257 17.4339 5.44106 17.3175L7.94106 14.8175C8.05842 14.7003 8.12442 14.5413 8.12453 14.3754C8.12465 14.2096 8.05888 14.0505 7.94169 13.9331C7.8245 13.8158 7.66548 13.7498 7.49963 13.7497C7.33378 13.7495 7.17467 13.8153 7.05731 13.9325L5.62481 15.3663V3.125Z" fill="#F8F8F8"/>
</svg>
