<svg width="20" height="20" viewBox="0 0 20 20" fill="none" xmlns="http://www.w3.org/2000/svg">
<path fill-rule="evenodd" clip-rule="evenodd" d="M12.6021 7.03621L12.0796 8.74996H10.7471L12.9833 2.08496H14.5258L16.7521 8.74996H15.3521L14.8283 7.03621H12.6021V7.03621ZM14.5646 6.05496L13.7496 3.35871H13.6908L12.8758 6.05496H14.5646Z" fill="#F8F8F8"/>
<path d="M16.1998 17.5H11.2848V16.6363L14.5086 11.9862V11.9187H11.3723V10.835H16.1036V11.6988L12.8948 16.3488V16.4163H16.2011V17.5H16.1998ZM5.62481 3.125C5.62481 2.95924 5.55896 2.80027 5.44175 2.68306C5.32454 2.56585 5.16557 2.5 4.99981 2.5C4.83405 2.5 4.67508 2.56585 4.55787 2.68306C4.44066 2.80027 4.37481 2.95924 4.37481 3.125V15.3663L2.94231 13.9325C2.8842 13.8744 2.81522 13.8283 2.73929 13.7968C2.66337 13.7654 2.58199 13.7492 2.49981 13.7492C2.41763 13.7492 2.33626 13.7654 2.26033 13.7968C2.18441 13.8283 2.11542 13.8744 2.05731 13.9325C1.9992 13.9906 1.95311 14.0596 1.92166 14.1355C1.89021 14.2114 1.87402 14.2928 1.87402 14.375C1.87402 14.4572 1.89021 14.5386 1.92166 14.6145C1.95311 14.6904 1.9992 14.7594 2.05731 14.8175L4.55731 17.3162L4.56606 17.325C4.68341 17.4394 4.84122 17.5028 5.00511 17.5014C5.169 17.5 5.3257 17.4339 5.44106 17.3175L7.94106 14.8175C8.05842 14.7003 8.12442 14.5413 8.12453 14.3754C8.12465 14.2096 8.05888 14.0505 7.94169 13.9331C7.8245 13.8158 7.66548 13.7498 7.49963 13.7497C7.33378 13.7495 7.17467 13.8153 7.05731 13.9325L5.62481 15.3663V3.125Z" fill="#F8F8F8"/>
</svg>
