<svg width="14" height="14" viewBox="0 0 14 14" fill="none" xmlns="http://www.w3.org/2000/svg">
<path d="M8.3125 10.5V11.375H5.6875V10.5H8.3125Z" fill="#F8F8F8"/>
<path d="M10.9375 13.125H3.0625C2.83051 13.1248 2.60808 13.0325 2.44404 12.8685C2.27999 12.7044 2.18773 12.482 2.1875 12.25V1.75C2.18773 1.51801 2.27999 1.29558 2.44404 1.13154C2.60808 0.967493 2.83051 0.875232 3.0625 0.875H10.9375C11.1695 0.875232 11.3919 0.967493 11.556 1.13154C11.72 1.29558 11.8123 1.51801 11.8125 1.75V12.25C11.8122 12.482 11.7199 12.7043 11.5558 12.8683C11.3918 13.0324 11.1695 13.1247 10.9375 13.125V13.125ZM3.0625 1.75V12.25H10.9375V1.75H3.0625Z" fill="#F8F8F8"/>
</svg>
