<svg width="12" height="12" viewBox="0 0 12 12" fill="none" xmlns="http://www.w3.org/2000/svg">
<path d="M7.125 9V9.75H4.875V9H7.125Z" fill="#F8F8F8"/>
<path d="M9.375 11.25H2.625C2.42615 11.2498 2.2355 11.1707 2.09489 11.0301C1.95428 10.8895 1.8752 10.6989 1.875 10.5V1.5C1.8752 1.30115 1.95428 1.1105 2.09489 0.969889C2.2355 0.82928 2.42615 0.750199 2.625 0.75H9.375C9.57385 0.750199 9.7645 0.82928 9.90511 0.969889C10.0457 1.1105 10.1248 1.30115 10.125 1.5V10.5C10.1247 10.6988 10.0456 10.8894 9.905 11.03C9.76441 11.1706 9.57382 11.2497 9.375 11.25V11.25ZM2.625 1.5V10.5H9.375V1.5H2.625Z" fill="#F8F8F8"/>
</svg>
