<svg width="20" height="20" viewBox="0 0 20 20" fill="none" xmlns="http://www.w3.org/2000/svg">
<path d="M11.875 15V16.25H8.125V15H11.875Z" fill="#F8F8F8"/>
<path d="M15.625 18.75H4.375C4.04358 18.7497 3.72583 18.6179 3.49148 18.3835C3.25713 18.1492 3.12533 17.8314 3.125 17.5V2.5C3.12533 2.16858 3.25713 1.85083 3.49148 1.61648C3.72583 1.38213 4.04358 1.25033 4.375 1.25H15.625C15.9564 1.25033 16.2742 1.38213 16.5085 1.61648C16.7429 1.85083 16.8747 2.16858 16.875 2.5V17.5C16.8745 17.8314 16.7426 18.149 16.5083 18.3833C16.274 18.6176 15.9564 18.7495 15.625 18.75V18.75ZM4.375 2.5V17.5H15.625V2.5H4.375Z" fill="#F8F8F8"/>
</svg>
