<svg width="24" height="24" viewBox="0 0 24 24" fill="none" xmlns="http://www.w3.org/2000/svg">
<path fill-rule="evenodd" clip-rule="evenodd" d="M15 4.5H19.5V6H18V19.5L16.5 21H6L4.5 19.5V6H3V4.5H7.5V3C7.5 2.60218 7.65804 2.22064 7.93934 1.93934C8.22064 1.65804 8.60218 1.5 9 1.5H13.5C13.8978 1.5 14.2794 1.65804 14.5607 1.93934C14.842 2.22064 15 2.60218 15 3V4.5ZM13.5 3H9V4.5H13.5V3ZM6 19.5H16.5V6H6V19.5ZM9 7.5H7.5V18H9V7.5ZM10.5 7.5H12V18H10.5V7.5ZM13.5 7.5H15V18H13.5V7.5Z" fill="white"/>
</svg>
