<svg width="36" height="36" viewBox="0 0 36 36" fill="none" xmlns="http://www.w3.org/2000/svg">
<path d="M3.13522 9.36363C3.03889 8.99037 2.99364 8.60578 3.00072 8.22036C3.00072 7.14435 3.9086 6.00108 5.38812 6.00108C7.00214 6.00108 7.77661 6.9426 8.07815 8.42211L10.9374 22.7151H11.0046L15.377 7.98498C15.7469 6.77447 16.7568 6 17.9998 6C19.245 6 20.2527 6.77338 20.6237 7.98498L24.995 22.7151H25.0622L27.9226 8.42211C28.223 6.9426 28.9986 6.00108 30.6126 6.00108C32.091 6.00108 33 7.14435 33 8.22036C33 8.69112 32.9664 8.9265 32.8644 9.36363L28.5951 27.7274C28.2577 29.1408 27.1481 30.3502 25.2662 30.3502C24.5197 30.3594 23.7906 30.1246 23.1897 29.6816C22.5889 29.2385 22.1491 28.6114 21.9372 27.8956L18.0356 14.9129H17.9684L14.0667 27.8956C13.8543 28.6113 13.4143 29.2383 12.8133 29.6812C12.2123 30.1242 11.4833 30.3591 10.7367 30.3502C8.85371 30.3502 7.74407 29.1408 7.40673 27.7274L3.13522 9.36363Z" fill="#DBDBDB"/>
</svg>
