<svg width="12" height="12" viewBox="0 0 12 12" fill="none" xmlns="http://www.w3.org/2000/svg">
<path d="M8.25 3H7.875V0.75H7.125V3H4.875V0.75H4.125V3H3.75C3.55109 3 3.36032 3.07902 3.21967 3.21967C3.07902 3.36032 3 3.55109 3 3.75V8.25C3 8.44891 3.07902 8.63968 3.21967 8.78033C3.36032 8.92098 3.55109 9 3.75 9H4.125V11.25H4.875V9H7.125V11.25H7.875V9H8.25C8.44891 9 8.63968 8.92098 8.78033 8.78033C8.92098 8.63968 9 8.44891 9 8.25V3.75C9 3.55109 8.92098 3.36032 8.78033 3.21967C8.63968 3.07902 8.44891 3 8.25 3V3ZM3.75 8.25V3.75H8.25V8.25H3.75ZM9.375 5.25H10.125V6.75H9.375V5.25Z" fill="#F8F8F8"/>
</svg>
