<svg width="20" height="20" viewBox="0 0 20 20" fill="none" xmlns="http://www.w3.org/2000/svg">
<path d="M13.75 5H13.125V1.25H11.875V5H8.125V1.25H6.875V5H6.25C5.91848 5 5.60054 5.1317 5.36612 5.36612C5.1317 5.60054 5 5.91848 5 6.25V13.75C5 14.0815 5.1317 14.3995 5.36612 14.6339C5.60054 14.8683 5.91848 15 6.25 15H6.875V18.75H8.125V15H11.875V18.75H13.125V15H13.75C14.0815 15 14.3995 14.8683 14.6339 14.6339C14.8683 14.3995 15 14.0815 15 13.75V6.25C15 5.91848 14.8683 5.60054 14.6339 5.36612C14.3995 5.1317 14.0815 5 13.75 5V5ZM6.25 13.75V6.25H13.75V13.75H6.25ZM15.625 8.75H16.875V11.25H15.625V8.75Z" fill="#F8F8F8"/>
</svg>
