<svg width="14" height="14" viewBox="0 0 14 14" fill="none" xmlns="http://www.w3.org/2000/svg">
<path d="M9.625 3.5H9.1875V0.875H8.3125V3.5H5.6875V0.875H4.8125V3.5H4.375C4.14294 3.5 3.92038 3.59219 3.75628 3.75628C3.59219 3.92038 3.5 4.14294 3.5 4.375V9.625C3.5 9.85706 3.59219 10.0796 3.75628 10.2437C3.92038 10.4078 4.14294 10.5 4.375 10.5H4.8125V13.125H5.6875V10.5H8.3125V13.125H9.1875V10.5H9.625C9.85706 10.5 10.0796 10.4078 10.2437 10.2437C10.4078 10.0796 10.5 9.85706 10.5 9.625V4.375C10.5 4.14294 10.4078 3.92038 10.2437 3.75628C10.0796 3.59219 9.85706 3.5 9.625 3.5V3.5ZM4.375 9.625V4.375H9.625V9.625H4.375ZM10.9375 6.125H11.8125V7.875H10.9375V6.125Z" fill="#F8F8F8"/>
</svg>
