<svg width="20" height="20" viewBox="0 0 20 20" fill="none" xmlns="http://www.w3.org/2000/svg">
<path fill-rule="evenodd" clip-rule="evenodd" d="M15.034 7.68625C15.1532 9.45821 14.5846 11.2079 13.4465 12.5713L18.7715 17.8963L17.8965 18.7838L12.5715 13.4463C11.3817 14.4395 9.89209 15.0033 8.34279 15.0467C6.79349 15.0901 5.27469 14.6107 4.03114 13.6856C2.78759 12.7605 1.8917 11.4437 1.48786 9.94729C1.08401 8.45092 1.19573 6.86216 1.805 5.43702C2.41426 4.01189 3.4856 2.83339 4.84638 2.09142C6.20715 1.34946 7.7781 1.08724 9.30608 1.34704C10.8341 1.60683 12.2301 2.37349 13.2692 3.52349C14.3083 4.67349 14.9299 6.13984 15.034 7.68625V7.68625ZM8.22145 13.7963C9.71252 13.7936 11.1418 13.2003 12.1965 12.1463L12.1465 12.1713C12.6804 11.6502 13.1056 11.0283 13.3974 10.3417C13.6892 9.65503 13.8419 8.91731 13.8465 8.17125C13.8465 7.05873 13.5166 5.9712 12.8985 5.04617C12.2804 4.12114 11.4019 3.40017 10.374 2.97443C9.34621 2.54869 8.21521 2.43729 7.12407 2.65433C6.03293 2.87138 5.03065 3.40711 4.24398 4.19378C3.45731 4.98045 2.92158 5.98273 2.70454 7.07387C2.48749 8.16501 2.59889 9.29601 3.02463 10.3238C3.45037 11.3517 4.17134 12.2302 5.09637 12.8483C6.0214 13.4664 7.10893 13.7963 8.22145 13.7963V13.7963ZM5.04645 7.57125H11.2965V8.82125H5.04645V7.57125Z" fill="#F8F8F8"/>
</svg>
