<svg width="24" height="24" viewBox="0 0 24 24" fill="none" xmlns="http://www.w3.org/2000/svg">
<path fill-rule="evenodd" clip-rule="evenodd" d="M18.0404 9.22351C18.1834 11.3499 17.5011 13.4495 16.1354 15.0855L22.5254 21.4755L21.4754 22.5405L15.0854 16.1355C13.6576 17.3274 11.8701 18.004 10.011 18.0561C8.1518 18.1082 6.32924 17.5328 4.83698 16.4227C3.34471 15.3126 2.26965 13.7324 1.78504 11.9368C1.30043 10.1411 1.43448 8.2346 2.1656 6.52444C2.89673 4.81428 4.18233 3.40008 5.81526 2.50972C7.44819 1.61936 9.33333 1.30471 11.1669 1.61646C13.0005 1.92821 14.6757 2.8482 15.9226 4.2282C17.1695 5.6082 17.9155 7.36782 18.0404 9.22351V9.22351ZM9.86535 16.5555C11.6546 16.5523 13.3698 15.8404 14.6354 14.5755L14.5754 14.6055C15.2161 13.9802 15.7263 13.234 16.0765 12.41C16.4267 11.5861 16.6098 10.7008 16.6154 9.80551C16.6154 8.47049 16.2195 7.16545 15.4778 6.05541C14.7361 4.94538 13.6819 4.08022 12.4485 3.56933C11.2151 3.05844 9.85786 2.92476 8.54849 3.18521C7.23912 3.44566 6.03639 4.08854 5.09238 5.03254C4.14838 5.97655 3.5055 7.17928 3.24505 8.48865C2.9846 9.79803 3.11827 11.1552 3.62917 12.3886C4.14006 13.622 5.00522 14.6762 6.11525 15.4179C7.22528 16.1596 8.53033 16.5555 9.86535 16.5555V16.5555ZM6.05535 9.08551H13.5554V10.5855H6.05535V9.08551Z" fill="#F8F8F8"/>
</svg>
